<svg xmlns="http://www.w3.org/2000/svg" width="600" height="900" viewBox="0 0 600 900">
<rect width="600" height="900" fill="#ffffff"/>
<polyline points="90.0,640.4 97.0,640.8 104.0,641.0 111.0,641.0 118.0,641.0 125.0,641.0 132.0,641.0 139.0,641.0 146.0,640.9 153.0,640.6 160.0,640.3 167.0,639.9 174.0,639.7 181.0,639.6 188.0,639.6 195.0,639.8 202.0,639.9 209.0,639.9 216.0,639.8 223.0,639.6 230.0,639.4 237.0,639.3 244.0,639.3 251.0,639.3 258.0,639.3 265.0,639.2 272.0,639.1 279.0,639.1 286.0,639.2 293.0,639.5 300.0,640.0 307.0,640.5 314.0,640.8 321.0,640.9 328.0,640.9 335.0,640.8 342.0,640.7 349.0,640.7 356.0,640.7 363.0,640.7 370.0,640.6 377.0,640.4 384.0,640.2 391.0,640.1 398.0,640.1 405.0,640.2 412.0,640.4 419.0,640.4 426.0,640.3 433.0,640.1 440.0,639.7 447.0,639.4 454.0,639.1 461.0,639.0 468.0,639.0 475.0,639.0 482.0,639.0 489.0,639.0 496.0,639.0 503.0,639.2 510.0,639.6" fill="none" stroke="#111111" stroke-width="1.1" stroke-linejoin="round" stroke-linecap="round"/>
<polyline points="90.0,616.6 97.0,616.6 104.0,616.6 111.0,616.6 118.0,616.7 125.0,616.8 132.0,616.7 139.0,616.5 146.0,616.3 153.0,616.3 160.0,616.4 167.0,616.8 174.0,617.2 181.0,617.6 188.0,617.9 195.0,618.0 202.0,618.0 209.0,618.1 216.0,618.1 223.0,618.1 230.0,618.1 237.0,618.0 244.0,617.7 251.0,617.4 258.0,617.1 265.0,617.0 272.0,617.0 279.0,617.1 286.0,617.3 293.0,617.3 300.0,617.2 307.0,617.0 314.0,616.8 321.0,616.6 328.0,616.5 335.0,616.5 342.0,616.4 349.0,616.3 356.0,616.1 363.0,616.0 370.0,616.1 377.0,616.3 384.0,616.7 391.0,617.2 398.0,617.6 405.0,617.8 412.0,617.9 419.0,617.8 426.0,617.8 433.0,617.7 440.0,617.8 447.0,617.8 454.0,617.8 461.0,617.7 468.0,617.5 475.0,617.4 482.0,617.4 489.0,617.5 496.0,617.7 503.0,617.8 510.0,617.8" fill="none" stroke="#111111" stroke-width="1.1" stroke-linejoin="round" stroke-linecap="round"/>
<polyline points="90.0,595.4 97.0,595.5 104.0,595.5 111.0,595.3 118.0,594.9 125.0,594.5 132.0,594.2 139.0,594.0 146.0,594.0 153.0,594.0 160.0,594.1 167.0,594.1 174.0,594.0 181.0,593.9 188.0,593.8 195.0,593.8 202.0,593.9 209.0,593.9 216.0,593.8 223.0,593.6 230.0,593.4 237.0,593.2 244.0,593.3 251.0,593.5 258.0,593.9 265.0,594.3 272.0,594.7 279.0,594.9 286.0,595.0 293.0,595.0 300.0,595.1 307.0,595.2 314.0,595.3 321.0,595.3 328.0,595.1 335.0,594.8 342.0,594.5 349.0,594.3 356.0,594.3 363.0,594.4 370.0,594.6 377.0,594.7 384.0,594.7 391.0,594.5 398.0,594.2 405.0,594.0 412.0,593.8 419.0,593.7 426.0,593.6 433.0,593.5 440.0,593.3 447.0,593.1 454.0,593.1 461.0,593.2 468.0,593.5 475.0,593.9 482.0,594.3 489.0,594.6 496.0,594.7 503.0,594.7 510.0,594.7" fill="none" stroke="#111111" stroke-width="1.1" stroke-linejoin="round" stroke-linecap="round"/>
<polyline points="90.0,572.0 97.0,571.8 104.0,571.6 111.0,571.5 118.0,571.5 125.0,571.7 132.0,572.0 139.0,572.3 146.0,572.6 153.0,572.7 160.0,572.9 167.0,573.0 174.0,573.3 181.0,573.5 188.0,573.6 195.0,573.5 202.0,573.2 209.0,572.9 216.0,572.5 223.0,572.3 230.0,572.2 237.0,572.3 244.0,572.4 251.0,572.4 258.0,572.3 265.0,572.2 272.0,572.0 279.0,572.0 286.0,572.0 293.0,572.0 300.0,571.9 307.0,571.7 314.0,571.4 321.0,571.2 328.0,571.1 335.0,571.2 342.0,571.5 349.0,571.9 356.0,572.3 363.0,572.6 370.0,572.7 377.0,572.8 384.0,572.9 391.0,573.0 398.0,573.2 405.0,573.2 412.0,573.2 419.0,573.0 426.0,572.7 433.0,572.5 440.0,572.5 447.0,572.6 454.0,572.8 461.0,572.9 468.0,573.0 475.0,572.8 482.0,572.6 489.0,572.4 496.0,572.1 503.0,572.0 510.0,571.9" fill="none" stroke="#111111" stroke-width="1.1" stroke-linejoin="round" stroke-linecap="round"/>
<polyline points="90.0,551.5 97.0,551.3 104.0,551.1 111.0,551.1 118.0,551.0 125.0,550.9 132.0,550.8 139.0,550.7 146.0,550.7 153.0,550.8 160.0,550.9 167.0,551.0 174.0,551.0 181.0,550.8 188.0,550.5 195.0,550.3 202.0,550.2 209.0,550.3 216.0,550.6 223.0,550.9 230.0,551.1 237.0,551.3 244.0,551.5 251.0,551.7 258.0,551.9 265.0,552.2 272.0,552.4 279.0,552.4 286.0,552.3 293.0,552.0 300.0,551.7 307.0,551.4 314.0,551.3 321.0,551.4 328.0,551.5 335.0,551.5 342.0,551.5 349.0,551.4 356.0,551.2 363.0,551.1 370.0,551.1 377.0,551.0 384.0,551.0 391.0,550.8 398.0,550.5 405.0,550.2 412.0,549.9 419.0,549.9 426.0,550.1 433.0,550.5 440.0,550.8 447.0,551.1 454.0,551.3 461.0,551.4 468.0,551.5 475.0,551.7 482.0,551.8 489.0,552.0 496.0,552.0 503.0,551.9 510.0,551.7" fill="none" stroke="#111111" stroke-width="1.1" stroke-linejoin="round" stroke-linecap="round"/>
<polyline points="90.0,530.6 97.0,530.8 104.0,530.9 111.0,531.0 118.0,531.1 125.0,531.4 132.0,531.7 139.0,532.1 146.0,532.3 153.0,532.4 160.0,532.2 167.0,531.9 174.0,531.5 181.0,531.3 188.0,531.2 195.0,531.1 202.0,531.1 209.0,531.0 216.0,530.8 223.0,530.7 230.0,530.6 237.0,530.7 244.0,530.8 251.0,530.9 258.0,530.9 265.0,530.7 272.0,530.4 279.0,530.1 286.0,529.9 293.0,529.9 300.0,530.0 307.0,530.3 314.0,530.6 321.0,530.8 328.0,530.9 335.0,531.1 342.0,531.3 349.0,531.6 356.0,531.9 363.0,532.1 370.0,532.1 377.0,531.9 384.0,531.6 391.0,531.4 398.0,531.2 405.0,531.3 412.0,531.4 419.0,531.5 426.0,531.5 433.0,531.4 440.0,531.3 447.0,531.2 454.0,531.1 461.0,531.1 468.0,531.0 475.0,530.8 482.0,530.5 489.0,530.1 496.0,529.8 503.0,529.7 510.0,529.7" fill="none" stroke="#111111" stroke-width="1.1" stroke-linejoin="round" stroke-linecap="round"/>
<polyline points="90.0,511.1 97.0,511.0 104.0,511.0 111.0,511.1 118.0,511.3 125.0,511.5 132.0,511.5 139.0,511.3 146.0,511.1 153.0,510.9 160.0,510.8 167.0,510.9 174.0,511.0 181.0,511.1 188.0,511.2 195.0,511.3 202.0,511.4 209.0,511.7 216.0,512.0 223.0,512.4 230.0,512.8 237.0,512.9 244.0,512.9 251.0,512.7 258.0,512.4 265.0,512.2 272.0,512.0 279.0,512.0 286.0,512.0 293.0,511.9 300.0,511.8 307.0,511.7 314.0,511.6 321.0,511.5 328.0,511.6 335.0,511.7 342.0,511.7 349.0,511.5 356.0,511.2 363.0,510.9 370.0,510.6 377.0,510.4 384.0,510.5 391.0,510.7 398.0,510.9 405.0,511.1 412.0,511.3 419.0,511.4 426.0,511.6 433.0,511.9 440.0,512.3 447.0,512.5 454.0,512.6 461.0,512.5 468.0,512.3 475.0,512.1 482.0,511.9 489.0,511.9 496.0,512.1 503.0,512.2 510.0,512.3" fill="none" stroke="#111111" stroke-width="1.1" stroke-linejoin="round" stroke-linecap="round"/>
<polyline points="90.0,494.4 97.0,494.8 104.0,495.2 111.0,495.4 118.0,495.3 125.0,495.1 132.0,494.9 139.0,494.8 146.0,494.7 153.0,494.6 160.0,494.4 167.0,494.2 174.0,493.9 181.0,493.7 188.0,493.6 195.0,493.7 202.0,493.8 209.0,494.0 216.0,494.0 223.0,493.9 230.0,493.7 237.0,493.4 244.0,493.2 251.0,493.1 258.0,493.2 265.0,493.3 272.0,493.4 279.0,493.5 286.0,493.5 293.0,493.7 300.0,494.0 307.0,494.4 314.0,494.8 321.0,495.1 328.0,495.2 335.0,495.1 342.0,494.9 349.0,494.7 356.0,494.6 363.0,494.5 370.0,494.6 377.0,494.6 384.0,494.5 391.0,494.4 398.0,494.2 405.0,494.2 412.0,494.2 419.0,494.3 426.0,494.4 433.0,494.2 440.0,494.0 447.0,493.6 454.0,493.2 461.0,492.9 468.0,492.9 475.0,493.0 482.0,493.1 489.0,493.3 496.0,493.4 503.0,493.6 510.0,493.7" fill="none" stroke="#111111" stroke-width="1.1" stroke-linejoin="round" stroke-linecap="round"/>
<polyline points="90.0,478.0 97.0,477.9 104.0,477.8 111.0,477.7 118.0,477.6 125.0,477.7 132.0,477.7 139.0,477.8 146.0,477.7 153.0,477.7 160.0,477.7 167.0,477.8 174.0,478.2 181.0,478.6 188.0,479.1 195.0,479.3 202.0,479.4 209.0,479.4 216.0,479.2 223.0,479.1 230.0,479.0 237.0,478.9 244.0,478.8 251.0,478.7 258.0,478.4 265.0,478.2 272.0,478.0 279.0,478.0 286.0,478.2 293.0,478.3 300.0,478.4 307.0,478.3 314.0,478.1 321.0,477.8 328.0,477.5 335.0,477.3 342.0,477.3 349.0,477.3 356.0,477.4 363.0,477.4 370.0,477.5 377.0,477.6 384.0,477.8 391.0,478.2 398.0,478.6 405.0,479.0 412.0,479.2 419.0,479.2 426.0,479.0 433.0,478.9 440.0,478.7 447.0,478.7 454.0,478.8 461.0,478.8 468.0,478.8 475.0,478.8 482.0,478.7 489.0,478.6 496.0,478.6 503.0,478.7 510.0,478.8" fill="none" stroke="#111111" stroke-width="1.1" stroke-linejoin="round" stroke-linecap="round"/>
<polyline points="90.0,465.2 97.0,465.2 104.0,465.2 111.0,465.1 118.0,464.9 125.0,464.6 132.0,464.2 139.0,463.9 146.0,463.7 153.0,463.7 160.0,463.9 167.0,464.0 174.0,464.1 181.0,464.0 188.0,463.9 195.0,463.7 202.0,463.6 209.0,463.5 216.0,463.6 223.0,463.6 230.0,463.5 237.0,463.4 244.0,463.3 251.0,463.4 258.0,463.7 265.0,464.1 272.0,464.6 279.0,465.0 286.0,465.2 293.0,465.2 300.0,465.1 307.0,465.0 314.0,465.0 321.0,464.9 328.0,464.9 335.0,464.8 342.0,464.6 349.0,464.4 356.0,464.2 363.0,464.2 370.0,464.3 377.0,464.5 384.0,464.6 391.0,464.5 398.0,464.3 405.0,464.0 412.0,463.7 419.0,463.4 426.0,463.3 433.0,463.3 440.0,463.3 447.0,463.3 454.0,463.2 461.0,463.3 468.0,463.4 475.0,463.7 482.0,464.1 489.0,464.5 496.0,464.8 503.0,464.9 510.0,464.8" fill="none" stroke="#111111" stroke-width="1.1" stroke-linejoin="round" stroke-linecap="round"/>
<polyline points="90.0,451.6 97.0,451.5 104.0,451.4 111.0,451.2 118.0,451.1 125.0,451.2 132.0,451.5 139.0,451.9 146.0,452.3 153.0,452.6 160.0,452.8 167.0,452.8 174.0,452.8 181.0,452.9 188.0,452.9 195.0,452.9 202.0,452.8 209.0,452.6 216.0,452.2 223.0,451.9 230.0,451.7 237.0,451.6 244.0,451.7 251.0,451.9 258.0,452.0 265.0,452.0 272.0,451.8 279.0,451.6 286.0,451.4 293.0,451.3 300.0,451.2 307.0,451.2 314.0,451.1 321.0,451.0 328.0,450.9 335.0,450.9 342.0,451.0 349.0,451.4 356.0,451.8 363.0,452.3 370.0,452.6 377.0,452.7 384.0,452.7 391.0,452.6 398.0,452.6 405.0,452.6 412.0,452.6 419.0,452.6 426.0,452.5 433.0,452.3 440.0,452.1 447.0,452.1 454.0,452.1 461.0,452.3 468.0,452.5 475.0,452.5 482.0,452.4 489.0,452.1 496.0,451.7 503.0,451.4 510.0,451.2" fill="none" stroke="#111111" stroke-width="1.1" stroke-linejoin="round" stroke-linecap="round"/>
<polyline points="90.0,441.7 97.0,441.3 104.0,441.0 111.0,441.0 118.0,441.0 125.0,441.1 132.0,441.1 139.0,441.0 146.0,440.9 153.0,440.8 160.0,440.8 167.0,440.9 174.0,441.0 181.0,440.9 188.0,440.8 195.0,440.6 202.0,440.4 209.0,440.4 216.0,440.5 223.0,440.9 230.0,441.3 237.0,441.7 244.0,441.9 251.0,442.1 258.0,442.1 265.0,442.2 272.0,442.3 279.0,442.4 286.0,442.4 293.0,442.2 300.0,442.0 307.0,441.7 314.0,441.4 321.0,441.3 328.0,441.4 335.0,441.5 342.0,441.7 349.0,441.7 356.0,441.5 363.0,441.3 370.0,441.1 377.0,440.9 384.0,440.8 391.0,440.7 398.0,440.6 405.0,440.5 412.0,440.3 419.0,440.2 426.0,440.2 433.0,440.5 440.0,440.9 447.0,441.3 454.0,441.7 461.0,441.9 468.0,441.9 475.0,441.9 482.0,441.8 489.0,441.9 496.0,442.0 503.0,442.0 510.0,442.0" fill="none" stroke="#111111" stroke-width="1.1" stroke-linejoin="round" stroke-linecap="round"/>
<polyline points="90.0,432.0 97.0,432.3 104.0,432.6 111.0,432.8 118.0,433.0 125.0,433.1 132.0,433.3 139.0,433.5 146.0,433.7 153.0,433.8 160.0,433.8 167.0,433.6 174.0,433.2 181.0,432.8 188.0,432.6 195.0,432.4 202.0,432.4 209.0,432.5 216.0,432.5 223.0,432.5 230.0,432.4 237.0,432.2 244.0,432.2 251.0,432.2 258.0,432.2 265.0,432.2 272.0,432.0 279.0,431.8 286.0,431.5 293.0,431.4 300.0,431.5 307.0,431.7 314.0,432.1 321.0,432.5 328.0,432.8 335.0,433.0 342.0,433.1 349.0,433.2 356.0,433.3 363.0,433.5 370.0,433.5 377.0,433.5 384.0,433.3 391.0,433.1 398.0,432.8 405.0,432.7 412.0,432.7 419.0,432.9 426.0,433.1 433.0,433.1 440.0,433.1 447.0,432.9 454.0,432.6 461.0,432.4 468.0,432.2 475.0,432.1 482.0,432.0 489.0,431.8 496.0,431.6 503.0,431.4 510.0,431.3" fill="none" stroke="#111111" stroke-width="1.1" stroke-linejoin="round" stroke-linecap="round"/>
<polyline points="90.0,424.7 97.0,424.6 104.0,424.5 111.0,424.5 118.0,424.6 125.0,424.7 132.0,424.9 139.0,424.9 146.0,424.7 153.0,424.5 160.0,424.2 167.0,424.1 174.0,424.2 181.0,424.4 188.0,424.7 195.0,425.0 202.0,425.2 209.0,425.4 216.0,425.5 223.0,425.7 230.0,426.0 237.0,426.2 244.0,426.3 251.0,426.3 258.0,426.0 265.0,425.6 272.0,425.3 279.0,425.2 286.0,425.2 293.0,425.2 300.0,425.3 307.0,425.3 314.0,425.2 321.0,425.0 328.0,424.9 335.0,424.9 342.0,424.9 349.0,424.8 356.0,424.7 363.0,424.5 370.0,424.1 377.0,423.9 384.0,423.8 391.0,423.9 398.0,424.3 405.0,424.6 412.0,425.0 419.0,425.2 426.0,425.3 433.0,425.4 440.0,425.6 447.0,425.7 454.0,425.9 461.0,426.0 468.0,425.9 475.0,425.7 482.0,425.5 489.0,425.3 496.0,425.3 503.0,425.5 510.0,425.7" fill="none" stroke="#111111" stroke-width="1.1" stroke-linejoin="round" stroke-linecap="round"/>
<polyline points="90.0,418.8 97.0,419.1 104.0,419.5 111.0,419.8 118.0,419.9 125.0,419.8 132.0,419.5 139.0,419.1 146.0,418.8 153.0,418.7 160.0,418.6 167.0,418.5 174.0,418.5 181.0,418.3 188.0,418.2 195.0,418.1 202.0,418.1 209.0,418.2 216.0,418.3 223.0,418.4 230.0,418.2 237.0,418.0 244.0,417.7 251.0,417.5 258.0,417.4 265.0,417.5 272.0,417.8 279.0,418.0 286.0,418.3 293.0,418.4 300.0,418.6 307.0,418.8 314.0,419.1 321.0,419.4 328.0,419.6 335.0,419.7 342.0,419.5 349.0,419.2 356.0,418.9 363.0,418.7 370.0,418.7 377.0,418.8 384.0,418.9 391.0,418.9 398.0,418.9 405.0,418.8 412.0,418.6 419.0,418.5 426.0,418.5 433.0,418.5 440.0,418.3 447.0,418.1 454.0,417.7 461.0,417.4 468.0,417.2 475.0,417.2 482.0,417.4 489.0,417.7 496.0,418.0 503.0,418.3 510.0,418.4" fill="none" stroke="#111111" stroke-width="1.1" stroke-linejoin="round" stroke-linecap="round"/>
<polyline points="90.0,412.1 97.0,412.2 104.0,412.1 111.0,411.9 118.0,411.7 125.0,411.6 132.0,411.6 139.0,411.7 146.0,411.8 153.0,412.0 160.0,412.0 167.0,412.1 174.0,412.3 181.0,412.6 188.0,413.0 195.0,413.4 202.0,413.6 209.0,413.6 216.0,413.5 223.0,413.2 230.0,412.9 237.0,412.7 244.0,412.7 251.0,412.6 258.0,412.6 265.0,412.5 272.0,412.3 279.0,412.2 286.0,412.1 293.0,412.2 300.0,412.3 307.0,412.4 314.0,412.3 321.0,412.0 328.0,411.7 335.0,411.3 342.0,411.2 349.0,411.2 356.0,411.4 363.0,411.6 370.0,411.8 377.0,412.0 384.0,412.1 391.0,412.3 398.0,412.6 405.0,412.9 412.0,413.2 419.0,413.4 426.0,413.3 433.0,413.1 440.0,412.9 447.0,412.7 454.0,412.6 461.0,412.7 468.0,412.8 475.0,413.0 482.0,413.0 489.0,412.9 496.0,412.8 503.0,412.7 510.0,412.6" fill="none" stroke="#111111" stroke-width="1.6" stroke-linejoin="round" stroke-linecap="round"/>
<polyline points="90.0,350.2 97.0,350.0 104.0,349.8 111.0,349.7 118.0,349.5 125.0,349.4 132.0,349.2 139.0,348.9 146.0,348.6 153.0,348.5 160.0,348.5 167.0,348.7 174.0,348.9 181.0,349.0 188.0,348.9 195.0,348.7 202.0,348.5 209.0,348.2 216.0,348.2 223.0,348.2 230.0,348.3 237.0,348.4 244.0,348.5 251.0,348.6 258.0,348.7 265.0,348.9 272.0,349.3 279.0,349.8 286.0,350.1 293.0,350.3 300.0,350.2 307.0,350.0 314.0,349.8 321.0,349.6 328.0,349.5 335.0,349.5 342.0,349.5 349.0,349.4 356.0,349.3 363.0,349.2 370.0,349.1 377.0,349.1 384.0,349.2 391.0,349.3 398.0,349.2 405.0,349.0 412.0,348.6 419.0,348.3 426.0,348.0 433.0,347.9 440.0,347.9 447.0,348.1 454.0,348.3 461.0,348.4 468.0,348.5 475.0,348.7 482.0,348.9 489.0,349.2 496.0,349.6 503.0,349.8 510.0,349.9" fill="none" stroke="#111111" stroke-width="1.6" stroke-linejoin="round" stroke-linecap="round"/>
<polyline points="90.0,325.7 97.0,325.7 104.0,325.8 111.0,325.8 118.0,325.7 125.0,325.7 132.0,325.8 139.0,326.1 146.0,326.5 153.0,326.9 160.0,327.3 167.0,327.4 174.0,327.4 181.0,327.2 188.0,327.1 195.0,327.0 202.0,326.9 209.0,326.8 216.0,326.6 223.0,326.4 230.0,326.1 237.0,325.9 244.0,325.9 251.0,326.0 258.0,326.2 265.0,326.3 272.0,326.3 279.0,326.1 286.0,325.8 293.0,325.5 300.0,325.3 307.0,325.3 314.0,325.3 321.0,325.4 328.0,325.4 335.0,325.4 342.0,325.5 349.0,325.7 356.0,326.0 363.0,326.5 370.0,326.9 377.0,327.2 384.0,327.2 391.0,327.1 398.0,326.9 405.0,326.8 412.0,326.7 419.0,326.7 426.0,326.8 433.0,326.8 440.0,326.7 447.0,326.6 454.0,326.5 461.0,326.5 468.0,326.6 475.0,326.7 482.0,326.7 489.0,326.5 496.0,326.2 503.0,325.7 510.0,325.4" fill="none" stroke="#111111" stroke-width="1.1" stroke-linejoin="round" stroke-linecap="round"/>
<polyline points="90.0,303.8 97.0,303.4 104.0,303.0 111.0,302.8 118.0,302.8 125.0,302.9 132.0,303.1 139.0,303.2 146.0,303.2 153.0,303.0 160.0,302.9 167.0,302.8 174.0,302.7 181.0,302.7 188.0,302.8 195.0,302.7 202.0,302.7 209.0,302.6 216.0,302.6 223.0,302.8 230.0,303.2 237.0,303.7 244.0,304.1 251.0,304.3 258.0,304.4 265.0,304.3 272.0,304.2 279.0,304.2 286.0,304.1 293.0,304.1 300.0,304.0 307.0,303.8 314.0,303.6 321.0,303.4 328.0,303.3 335.0,303.3 342.0,303.5 349.0,303.6 356.0,303.7 363.0,303.5 370.0,303.2 377.0,302.9 384.0,302.6 391.0,302.5 398.0,302.4 405.0,302.4 412.0,302.4 419.0,302.4 426.0,302.4 433.0,302.5 440.0,302.8 447.0,303.2 454.0,303.6 461.0,304.0 468.0,304.1 475.0,304.1 482.0,304.0 489.0,303.8 496.0,303.8 503.0,303.8 510.0,303.9" fill="none" stroke="#111111" stroke-width="1.1" stroke-linejoin="round" stroke-linecap="round"/>
<polyline points="90.0,279.8 97.0,280.1 104.0,280.4 111.0,280.8 118.0,281.2 125.0,281.4 132.0,281.5 139.0,281.5 146.0,281.5 153.0,281.5 160.0,281.6 167.0,281.5 174.0,281.3 181.0,280.9 188.0,280.6 195.0,280.3 202.0,280.2 209.0,280.2 216.0,280.4 223.0,280.5 230.0,280.5 237.0,280.4 244.0,280.2 251.0,280.0 258.0,279.9 265.0,279.9 272.0,279.9 279.0,279.8 286.0,279.7 293.0,279.6 300.0,279.5 307.0,279.6 314.0,279.9 321.0,280.4 328.0,280.8 335.0,281.2 342.0,281.3 349.0,281.4 356.0,281.3 363.0,281.2 370.0,281.2 377.0,281.3 384.0,281.3 391.0,281.2 398.0,281.0 405.0,280.8 412.0,280.6 419.0,280.6 426.0,280.8 433.0,281.0 440.0,281.1 447.0,281.0 454.0,280.7 461.0,280.4 468.0,280.0 475.0,279.8 482.0,279.7 489.0,279.6 496.0,279.6 503.0,279.5 510.0,279.5" fill="none" stroke="#111111" stroke-width="1.1" stroke-linejoin="round" stroke-linecap="round"/>
<polyline points="90.0,258.2 97.0,258.2 104.0,258.2 111.0,258.1 118.0,258.0 125.0,258.0 132.0,258.1 139.0,258.2 146.0,258.2 153.0,258.1 160.0,257.9 167.0,257.7 174.0,257.6 181.0,257.7 188.0,258.0 195.0,258.4 202.0,258.8 209.0,259.1 216.0,259.3 223.0,259.3 230.0,259.4 237.0,259.5 244.0,259.6 251.0,259.6 258.0,259.5 265.0,259.2 272.0,258.9 279.0,258.6 286.0,258.4 293.0,258.4 300.0,258.6 307.0,258.7 314.0,258.8 321.0,258.7 328.0,258.5 335.0,258.3 342.0,258.1 349.0,258.0 356.0,257.9 363.0,257.9 370.0,257.7 377.0,257.5 384.0,257.4 391.0,257.4 398.0,257.6 405.0,257.9 412.0,258.4 419.0,258.8 426.0,259.1 433.0,259.1 440.0,259.1 447.0,259.1 454.0,259.1 461.0,259.2 468.0,259.2 475.0,259.2 482.0,259.1 489.0,258.9 496.0,258.8 503.0,258.8 510.0,258.9" fill="none" stroke="#111111" stroke-width="1.1" stroke-linejoin="round" stroke-linecap="round"/>
<polyline points="90.0,236.2 97.0,236.4 104.0,236.5 111.0,236.8 118.0,236.9 125.0,237.0 132.0,236.8 139.0,236.5 146.0,236.1 153.0,235.7 160.0,235.5 167.0,235.5 174.0,235.5 181.0,235.6 188.0,235.6 195.0,235.5 202.0,235.3 209.0,235.3 216.0,235.3 223.0,235.3 230.0,235.3 237.0,235.2 244.0,235.0 251.0,234.8 258.0,234.6 265.0,234.6 272.0,234.8 279.0,235.2 286.0,235.6 293.0,235.9 300.0,236.1 307.0,236.2 314.0,236.3 321.0,236.4 328.0,236.6 335.0,236.7 342.0,236.7 349.0,236.6 356.0,236.3 363.0,236.0 370.0,235.8 377.0,235.8 384.0,235.9 391.0,236.0 398.0,236.2 405.0,236.1 412.0,236.0 419.0,235.7 426.0,235.5 433.0,235.4 440.0,235.3 447.0,235.2 454.0,235.0 461.0,234.8 468.0,234.5 475.0,234.4 482.0,234.5 489.0,234.7 496.0,235.1 503.0,235.6 510.0,235.9" fill="none" stroke="#111111" stroke-width="1.1" stroke-linejoin="round" stroke-linecap="round"/>
<polyline points="90.0,212.4 97.0,212.6 104.0,212.6 111.0,212.6 118.0,212.4 125.0,212.1 132.0,212.0 139.0,212.0 146.0,212.2 153.0,212.4 160.0,212.7 167.0,212.9 174.0,213.1 181.0,213.3 188.0,213.5 195.0,213.7 202.0,214.0 209.0,214.1 216.0,214.1 223.0,213.8 230.0,213.5 237.0,213.2 244.0,212.9 251.0,212.8 258.0,212.9 265.0,213.0 272.0,213.0 279.0,212.9 286.0,212.7 293.0,212.6 300.0,212.6 307.0,212.6 314.0,212.6 321.0,212.5 328.0,212.3 335.0,212.0 342.0,211.7 349.0,211.6 356.0,211.7 363.0,211.9 370.0,212.3 377.0,212.7 384.0,212.9 391.0,213.1 398.0,213.2 405.0,213.3 412.0,213.5 419.0,213.7 426.0,213.8 433.0,213.7 440.0,213.5 447.0,213.3 454.0,213.1 461.0,213.0 468.0,213.1 475.0,213.3 482.0,213.5 489.0,213.5 496.0,213.5 503.0,213.2 510.0,213.0" fill="none" stroke="#111111" stroke-width="1.1" stroke-linejoin="round" stroke-linecap="round"/>
<polyline points="90.0,191.3 97.0,191.1 104.0,190.7 111.0,190.4 118.0,190.2 125.0,190.0 132.0,190.0 139.0,189.9 146.0,189.8 153.0,189.6 160.0,189.5 167.0,189.5 174.0,189.6 181.0,189.7 188.0,189.8 195.0,189.8 202.0,189.6 209.0,189.3 216.0,189.0 223.0,188.9 230.0,189.0 237.0,189.2 244.0,189.5 251.0,189.7 258.0,189.9 265.0,190.1 272.0,190.3 279.0,190.6 286.0,190.9 293.0,191.1 300.0,191.2 307.0,191.1 314.0,190.8 321.0,190.5 328.0,190.3 335.0,190.2 342.0,190.2 349.0,190.3 356.0,190.3 363.0,190.3 370.0,190.2 377.0,190.1 384.0,190.0 391.0,189.9 398.0,189.9 405.0,189.8 412.0,189.6 419.0,189.3 426.0,189.0 433.0,188.7 440.0,188.7 447.0,188.8 454.0,189.1 461.0,189.5 468.0,189.7 475.0,189.9 482.0,190.0 489.0,190.2 496.0,190.3 503.0,190.5 510.0,190.7" fill="none" stroke="#111111" stroke-width="1.1" stroke-linejoin="round" stroke-linecap="round"/>
<text x="300.0" y="730" text-anchor="middle" font-family='Georgia, "Times New Roman", serif' font-size="17" font-style="italic" fill="#111111">No winter is the last one.</text>
</svg>
