<svg xmlns="http://www.w3.org/2000/svg" viewBox="0 0 640 500" style="color:#1a1a1a" role="img" aria-label="Appreciation becomes care">
<style>
.ttl{font:600 17px Georgia,serif;letter-spacing:.20em;text-anchor:middle}
.txt{font:18px Georgia,serif;text-anchor:middle}
.lbl{font:600 18px Georgia,serif;text-anchor:start}
.cap{font:italic 16px Georgia,serif;text-anchor:middle;opacity:.8}
.inside{font:italic 16px Georgia,serif;text-anchor:start;opacity:.8}
</style>
<rect x="0" y="0" width="640" height="500" fill="#ffffff"/>
<text class="ttl" x="320" y="40" fill="currentColor">Appreciation becomes care</text>
<text class="txt" x="320" y="86" fill="currentColor">Notice what you value in your wife</text>
<!-- One connected watering action. The can, drops and grass form a single centred drawing. -->
<g stroke="currentColor" stroke-width="2.4" stroke-linecap="round" stroke-linejoin="round" fill="none">
<!-- Open loop handle, broad curved body, long rising spout and sprinkler head. -->
<path d="M146 154 C80 113 80 231 143 222" fill="none"/>
<path d="M148 137 L291 168 L267 262 Q205 267 141 231 Z" fill="none"/>
<path d="M279 222 L350 166 L367 185 L271 252" fill="none"/>
<path d="M344 159 L377 187 L384 179 L352 151 Z" fill="currentColor"/>
<!-- Discrete drops descend from the rose all the way into the grass. -->
<path d="M381 196l5 10 M397 222l5 11 M410 250l4 12 M421 281l3 12 M429 312l2 12 M434 342l1 12" fill="none"/>
<path d="M371 201l2 10 M382 230l2 11 M390 260l1 12 M397 291l1 12 M402 322l1 12 M405 351l1 12" fill="none"/>
<path d="M300 382H560" fill="none" stroke-width="1.2"/>
<path d="M314 382q-2 -30 -13 -43 M314 382q0 -37 6 -52 M314 382q5 -23 15 -30" fill="none"/>
<path d="M340 382q-2 -30 -13 -43 M340 382q0 -37 6 -52 M340 382q5 -23 15 -30" fill="none"/>
<path d="M366 382q-2 -30 -13 -43 M366 382q0 -37 6 -52 M366 382q5 -23 15 -30" fill="none"/>
<path d="M392 382q-2 -30 -13 -43 M392 382q0 -37 6 -52 M392 382q5 -23 15 -30" fill="none"/>
<path d="M418 382q-2 -30 -13 -43 M418 382q0 -37 6 -52 M418 382q5 -23 15 -30" fill="none"/>
<path d="M444 382q-2 -30 -13 -43 M444 382q0 -37 6 -52 M444 382q5 -23 15 -30" fill="none"/>
<path d="M470 382q-2 -30 -13 -43 M470 382q0 -37 6 -52 M470 382q5 -23 15 -30" fill="none"/>
<path d="M496 382q-2 -30 -13 -43 M496 382q0 -37 6 -52 M496 382q5 -23 15 -30" fill="none"/>
<path d="M522 382q-2 -30 -13 -43 M522 382q0 -37 6 -52 M522 382q5 -23 15 -30" fill="none"/>
<path d="M548 382q-2 -30 -13 -43 M548 382q0 -37 6 -52 M548 382q5 -23 15 -30" fill="none"/>
</g>
<text class="inside" x="156" y="213" fill="currentColor">appreciation</text>
<text class="lbl" x="433" y="263" fill="currentColor">a kinder answer</text>
<text class="cap" x="320" y="429" fill="currentColor">the life you share</text>
</svg>
